<mxfile host="app.diagrams.net" agent="Mozilla/5.0 (Windows NT 10.0; Win64; x64) AppleWebKit/537.36 (KHTML, like Gecko) Chrome/131.0.0.0 Safari/537.36" version="24.8.9">
  <diagram name="Page-1" id="UPUbAoP4OmIF5PdMVSty">
    <mxGraphModel dx="1050" dy="522" grid="1" gridSize="10" guides="1" tooltips="1" connect="1" arrows="1" fold="1" page="1" pageScale="1" pageWidth="827" pageHeight="1169" math="0" shadow="0">
      <root>
        <mxCell id="0" />
        <mxCell id="1" parent="0" />
        <mxCell id="oTl87zambijDZglaST6w-4" value="" style="edgeStyle=orthogonalEdgeStyle;rounded=0;orthogonalLoop=1;jettySize=auto;html=1;" edge="1" parent="1" source="oTl87zambijDZglaST6w-1" target="oTl87zambijDZglaST6w-2">
          <mxGeometry relative="1" as="geometry" />
        </mxCell>
        <mxCell id="oTl87zambijDZglaST6w-1" value="START" style="ellipse;whiteSpace=wrap;html=1;" vertex="1" parent="1">
          <mxGeometry x="354" y="50" width="120" height="80" as="geometry" />
        </mxCell>
        <mxCell id="oTl87zambijDZglaST6w-8" value="" style="edgeStyle=orthogonalEdgeStyle;rounded=0;orthogonalLoop=1;jettySize=auto;html=1;" edge="1" parent="1" source="oTl87zambijDZglaST6w-2" target="oTl87zambijDZglaST6w-3">
          <mxGeometry relative="1" as="geometry" />
        </mxCell>
        <mxCell id="oTl87zambijDZglaST6w-2" value="แสดง&amp;nbsp;&quot;Hello, I&#39;m Javis (RMUTL-Version).&quot; และเว้นบรรทัด" style="shape=parallelogram;perimeter=parallelogramPerimeter;whiteSpace=wrap;html=1;fixedSize=1;" vertex="1" parent="1">
          <mxGeometry x="234" y="160" width="360" height="60" as="geometry" />
        </mxCell>
        <mxCell id="oTl87zambijDZglaST6w-9" value="" style="edgeStyle=orthogonalEdgeStyle;rounded=0;orthogonalLoop=1;jettySize=auto;html=1;" edge="1" parent="1" source="oTl87zambijDZglaST6w-3" target="oTl87zambijDZglaST6w-5">
          <mxGeometry relative="1" as="geometry" />
        </mxCell>
        <mxCell id="oTl87zambijDZglaST6w-3" value="แสดง&amp;nbsp;&quot;This is my first time to coding with C language.&quot; และเว้นบรรทัด" style="shape=parallelogram;perimeter=parallelogramPerimeter;whiteSpace=wrap;html=1;fixedSize=1;" vertex="1" parent="1">
          <mxGeometry x="211" y="240" width="406" height="60" as="geometry" />
        </mxCell>
        <mxCell id="oTl87zambijDZglaST6w-11" value="" style="edgeStyle=orthogonalEdgeStyle;rounded=0;orthogonalLoop=1;jettySize=auto;html=1;" edge="1" parent="1" source="oTl87zambijDZglaST6w-5" target="oTl87zambijDZglaST6w-10">
          <mxGeometry relative="1" as="geometry" />
        </mxCell>
        <mxCell id="oTl87zambijDZglaST6w-5" value="แสดง&amp;nbsp;&quot;Today is my birthday.&quot;" style="shape=parallelogram;perimeter=parallelogramPerimeter;whiteSpace=wrap;html=1;fixedSize=1;" vertex="1" parent="1">
          <mxGeometry x="304" y="320" width="220" height="60" as="geometry" />
        </mxCell>
        <mxCell id="oTl87zambijDZglaST6w-10" value="END" style="ellipse;whiteSpace=wrap;html=1;" vertex="1" parent="1">
          <mxGeometry x="354" y="400" width="120" height="80" as="geometry" />
        </mxCell>
      </root>
    </mxGraphModel>
  </diagram>
</mxfile>
